<?xml version="1.0" standalone="no"?>
<!DOCTYPE svg PUBLIC "-//W3C//DTD SVG 20010904//EN"
 "http://www.w3.org/TR/2001/REC-SVG-20010904/DTD/svg10.dtd">
<svg version="1.0" xmlns="http://www.w3.org/2000/svg"
 width="512.000000pt" height="512.000000pt" viewBox="0 0 512.000000 512.000000"
 preserveAspectRatio="xMidYMid meet">
<metadata>
Created by potrace 1.11, written by Peter Selinger 2001-2013
</metadata>
<g transform="translate(0.000000,512.000000) scale(0.100000,-0.100000)"
fill="#000000" stroke="none">
<path d="M2298 5085 c-2 -2 -24 -6 -50 -9 -72 -9 -121 -17 -140 -22 -10 -3
-30 -7 -45 -10 -16 -3 -46 -10 -68 -16 -49 -14 -41 -12 -95 -27 -175 -47 -407
-167 -538 -278 -127 -109 -229 -235 -237 -295 -2 -18 -7 -49 -10 -68 -11 -76
-22 -174 -30 -280 -10 -143 -24 -409 -25 -491 0 -36 -7 -55 -31 -85 -35 -44
-72 -121 -89 -185 -7 -24 -15 -53 -18 -64 -3 -11 -7 -103 -8 -205 -4 -275 20
-402 110 -593 48 -103 56 -128 60 -195 5 -77 14 -113 56 -227 12 -33 24 -82
25 -110 2 -27 6 -81 9 -120 7 -74 13 -155 21 -270 28 -382 34 -451 46 -482 5
-13 5 -23 2 -23 -4 0 -2 -5 5 -12 7 -7 12 -17 12 -24 0 -7 10 -34 22 -61 12
-26 22 -51 22 -55 1 -4 20 -35 42 -70 23 -35 71 -108 106 -163 36 -55 91 -140
123 -190 32 -49 83 -128 113 -174 87 -136 150 -183 257 -196 28 -3 61 -7 75
-10 100 -15 197 -20 420 -20 223 1 309 4 410 19 14 2 50 7 80 11 136 17 189
72 440 465 223 348 224 350 251 427 35 98 33 88 54 371 6 77 12 162 20 282 7
97 11 122 24 168 5 17 8 32 6 32 -3 0 0 11 5 25 5 14 12 36 14 48 8 42 46 192
66 262 11 39 23 89 25 112 3 22 32 98 65 167 54 116 78 178 87 231 8 50 14 82
19 105 3 14 7 117 9 230 3 179 1 214 -16 280 -25 95 -64 175 -106 221 l-34 36
-4 153 c-3 84 -7 187 -10 229 -3 42 -8 105 -10 141 -3 36 -7 85 -10 110 -2 25
-7 72 -11 105 -10 100 -12 109 -23 150 -15 58 -107 177 -196 256 -11 10 -31
28 -45 40 -39 34 -179 123 -247 158 -91 46 -318 133 -318 122 0 -1 -22 5 -50
13 -49 14 -169 39 -250 52 -45 7 -381 15 -387 9z"/>
</g>
</svg>
